<?xml version="1.0" encoding="UTF-8" standalone="no"?>
<!-- Creator: CorelDRAW X6 -->

<svg
   xmlns:dc="http://purl.org/dc/elements/1.1/"
   xmlns:cc="http://creativecommons.org/ns#"
   xmlns:rdf="http://www.w3.org/1999/02/22-rdf-syntax-ns#"
   xmlns:svg="http://www.w3.org/2000/svg"
   xmlns="http://www.w3.org/2000/svg"
   xmlns:sodipodi="http://sodipodi.sourceforge.net/DTD/sodipodi-0.dtd"
   xmlns:inkscape="http://www.inkscape.org/namespaces/inkscape"
   xml:space="preserve"
   width="2.9069178in"
   height="2.5969265in"
   version="1.1"
   style="clip-rule:evenodd;fill-rule:evenodd;image-rendering:optimizeQuality;shape-rendering:geometricPrecision;text-rendering:geometricPrecision"
   viewBox="0 0 2906.8091 2596.9999"
   id="svg5261"
   sodipodi:docname="mlLogo.svg"
   inkscape:version="0.92.4 (5da689c313, 2019-01-14)"><metadata
   id="metadata5265"><rdf:RDF><cc:Work
       rdf:about=""><dc:format>image/svg+xml</dc:format><dc:type
         rdf:resource="http://purl.org/dc/dcmitype/StillImage" /><dc:title></dc:title></cc:Work></rdf:RDF></metadata><sodipodi:namedview
   pagecolor="#ffffff"
   bordercolor="#666666"
   borderopacity="1"
   objecttolerance="10"
   gridtolerance="10"
   guidetolerance="10"
   inkscape:pageopacity="0"
   inkscape:pageshadow="2"
   inkscape:window-width="1366"
   inkscape:window-height="706"
   id="namedview5263"
   showgrid="false"
   inkscape:zoom="0.71919622"
   inkscape:cx="456.24508"
   inkscape:cy="-29.87169"
   inkscape:window-x="-8"
   inkscape:window-y="-8"
   inkscape:window-maximized="1"
   inkscape:current-layer="svg5261" />
 <defs
   id="defs4883">
  <style
   type="text/css"
   id="style4881">
   <![CDATA[
    .str1 {stroke:#AA5CA3;stroke-width:2.95276}
    .str0 {stroke:#A0DAE3;stroke-width:5.90551}
    .str2 {stroke:#AA5CA3;stroke-width:2.95276;stroke-dasharray:13.338583 13.338583}
    .fil3 {fill:none;fill-rule:nonzero}
    .fil2 {fill:#222225;fill-rule:nonzero}
    .fil5 {fill:#373435;fill-rule:nonzero}
    .fil4 {fill:#A0DAE3;fill-rule:nonzero}
    .fil6 {fill:#FEFEFE;fill-rule:nonzero}
    .fil1 {fill:#2105A3;fill-rule:nonzero}
    .fil0 {fill:#F5D402;fill-rule:nonzero}
   ]]>
  </style>
 </defs>
 <g
   id="Layer_x0020_1"
   transform="translate(-594.66379,-304.94038)">
  <metadata
   id="CorelCorpID_0Corel-Layer" />
  
  
  
  
  
  
  
  
  
  
  
  
  
  
  
  
  
  
  
  
  
  
  
  
  
  
  
  
  
  
  
  
  
  
  
  
  
  
  
  
  
  
  
  
  
  
  
  
  
  
  
  
  
  
  
  
  
  
  
  
  
  
  
  
  
  
  
  
  
  
  
  
  
  
  
  
  
  
  
  
  
  
  
  
  
  
  
  
  
  
  
  
  
  
  
  
  
  
  
  
  
  
  
  
  
  
  
  
  
  
  
  
  
  
  
  
  
  
  
  
  
  
  
  
  
  
  
  
  
  
  
  
  
  
  
  
  
  
  
  
  
  
  
  
  
  
  
  
  
  
  
  
  
  
  
  
  
  
  
  
  
  
  
  
  
  
  
  
  <path
   class="fil1"
   d="m 2972.3127,907.94038 c 0,-332 -413,-603 -921,-603 -509,0 -921,271 -921,603 0,9 0,32 0,35 0,352.00002 361,637.00002 921,637.00002 564,0 921,-285 921,-637.00002 0,-12 0,-19 0,-35 z"
   id="path5222"
   inkscape:connector-curvature="0"
   style="fill:#2105a3;fill-rule:nonzero" />
  <path
   class="fil0"
   d="m 2937.3127,907.94038 c 0,313.00002 -397,567.00002 -886,567.00002 -489,0 -886,-254 -886,-567.00002 0,-313 397,-567 886,-567 489,0 886,254 886,567 z"
   id="path5224"
   inkscape:connector-curvature="0"
   style="fill:#f5d402;fill-rule:nonzero" />
  <path
   class="fil6"
   d="m 1757.3127,728.94038 c 0,1 -9,10 -4,17 14,18 57,28 101,18 26,-6 59,-32 92,-58 35,-28 70,-56 105,-67 37,-12 61,-7 76,-2 17,5 37,16 70,41 61,46 304,258 346,295 34,-15 185,-80 390,-125 -18,-109 -84,-209 -185,-291 -140,59 -312,90 -480,8 -1,0 -92,-43 -181,-41 -133,3 -191,61 -252,122 l -77,83 z"
   id="path5226"
   inkscape:connector-curvature="0"
   style="fill:#fefefe;fill-rule:nonzero" />
  <path
   class="fil6"
   d="m 2532.3127,996.94038 c -3,-3 -287,-251 -351,-299 -37,-28 -58,-35 -80,-38 -11,-1 -27,1 -38,4 -30,8 -69,34 -104,62 -36,29 -70,56 -101,63 -40,9 -89,-2 -112,-17 -9,-6 -15,-13 -19,-20 -8,-19 7,-35 9,-37 l 78,-85 c 9,-9 18,-18 28,-27 -25,3 -49,10 -71,16 -28,8 -56,16 -83,16 -12,0 -73,-10 -85,-13 -71,-19 -133,-38 -226,-82 -111,83 -186,186 -207,301 16,4 42,12 53,14 252,56 330,114 345,126 15,-17 38,-28 62,-28 28,0 53,14 68,36 14,-11 34,-21 60,-21 12,0 24,2 36,6 28,10 43,29.00002 51,46.00002 10,-4 21,-7 35,-7 14,0 28,3 42,9 46,20 54,66 49,100 3,0 7,-1 10,-1 55,0 100,45 100,100 0,17 -4,33 -12,47 15,8 53,27 87,23 27,-3 37,-13 41,-18 3,-4 5,-8 3,-11 l -71,-79 c 0,0 -12,-11 -8,-15 4,-4 11,2 16,6 36,30 80,76 80,76 1,1 4,6 20,9 14,3 39,1 56,-13 4,-4 9,-8 12,-13 0,0 -1,1 -1,1 18,-23 -2,-47 -2,-47 l -83,-93 c 0,0 -12,-11 -8,-15 4,-4 11,2 16,6 26,22 63,59 99,94 7,5 38,24 80,-3 25,-16 30,-37 29,-52 -2,-20 -18,-35 -18,-35 l -113,-114.00002 c 0,0 -12,-10 -8,-15 3,-4 11,2 16,6 36,30 134,120.00002 134,120.00002 1,1 35,25 77,-2 15,-10 24,-24 25,-41 1,-29 -19,-46.00002 -19,-46.00002 z"
   id="path5228"
   inkscape:connector-curvature="0"
   style="fill:#fefefe;fill-rule:nonzero" />
  <path
   class="fil6"
   d="m 1983.3127,1140.9404 c -18,0 -37,10 -39,9 -1,-1 1,-8 3,-12 2,-4 25,-74 -32,-98 -43,-19 -70,2 -79,12 -2,2 -3,2 -4,-1 -1,-13 -6,-46 -44,-58.00002 -53,-16 -88,21.00002 -96,34.00002 -4,-30.00002 -30,-54.00002 -61,-54.00002 -34,0 -62,28.00002 -62,62.00002 0,34 28,62 62,62 17,0 32,-7 43,-17 0,0 0,1 0,2 -3,15 -7,71 51,93 23,9 43,2 60,-9 5,-3 6,-2 5,3 -2,14 1,45 43,62 33,13 52,0 65,-12 6,-5 7,-4 7,4 2,41 36,74 78,74 43,0 78,-35 78,-78 0,-43 -35,-77 -78,-78 z"
   id="path5230"
   inkscape:connector-curvature="0"
   style="fill:#fefefe;fill-rule:nonzero" />
  <path
   class="fil1"
   d="m 1983.3127,1290.9404 c -39,0 -71,-30 -72,-69 0,-3 0,-12 -8,-12 -3,0 -6,2 -9,5 -9,8 -19,16 -35,16 -7,0 -15,-2 -23,-5 -41,-17 -42,-45 -40,-56 0,-3 1,-6 -1,-9 l -3,-2 h -3 c -2,0 -4,1 -7,3 -12,8 -23,12 -35,12 -6,0 -13,-1 -19,-4 -54,-21 -50,-72 -47,-88 0,-3 0,-6 -2,-7 l -4,-3 -4,3 c -11,10 -24,16 -39,16 -31,0 -56,-25 -56,-56 0,-31 25,-56.00002 56,-56.00002 28,0 52,21 55,49.00002 l 2,15 8,-13 c 1,-2 24,-36.00002 65,-36.00002 8,0 16,1 24,4 33,10.00002 39,40.00002 40,53.00002 1,7 6,8 7,8 3,0 5,-2 7,-3 6,-7 20,-17 41,-17 10,0 20,2 31,7 53,23 29,90 29,91 -5,11 -5,16 0,19 l 2,1 h 2 c 2,0 5,-1 10,-3 7,-2 18,-6 28,-6 v 0 c 40,0 72,33 72,72 0,40 -32,72 -72,72 z m 561,-324.00002 c -87,-76 -289,-252 -344,-293 -31,-24 -53,-36 -71,-42 -8,-3 -20,-5 -35,-5 -14,0 -29,3 -44,7 -35,11 -71,39 -105,66 l -2,1 c -32,25 -65,51 -89,57 -11,2 -22,4 -33,4 -28,0 -53,-8 -62,-20 -2,-2 -1,-5 3,-10 v -1 l 77,-83 c 60,-60 117,-117 248,-120 2,0 4,0 7,0 82,0 163,37 172,41 76,37 155,56 235,56 83,0 168,-20 258,-62 -10,-8 -20,-17 -31,-25 -79,34 -154,51 -226,51 -74,0 -148,-18 -220,-53 -4,-2 -94,-44 -187,-44 -2,0 -5,0 -7,0 -110,3 -172,42 -214,76 -41,1 -75,11 -107,19 -28,8 -52,14 -75,14 -10,0 -27,-1 -29,-1 -27,-1 -162,-34 -270,-75 -11,8 -22,16 -32,24 113,46 250,82 293,85 12,1 25,2 38,2 29,0 57,-8 85,-16 16,-5 34,-10 53,-13 -5,5 -10,10 -15,15 l -78,85 c -6,6 -20,23 -11,43 3,8 11,16 21,23 19,13 52,21 83,21 12,0 23,-1 33,-3 33,-7 67,-35 104,-64 29,-23 70,-52 102,-61 9,-2 20,-4 28,-4 3,0 5,0 7,0 21,3 41,10 77,37 64,48 348,296 351,299 0,0 18,16.00002 17,42.00002 -1,14 -9,27 -23,36 -12,8 -25,12 -37,12 -19,0 -32,-9 -33,-10 -1,-1 -98,-90.00002 -134,-120.00002 -6,-5 -11,-9 -17,-9 -3,0 -6,1 -7,4 -6,7 1,17 8,23 l 114,114.00002 c 0,0 14,13 16,31 1,19 -8,35 -27,47 -13,9 -27,13 -40,13 -17,0 -30,-8 -32,-10 l -16,-16 c -30,-29 -61,-60 -83,-78 -5,-5 -11,-9 -17,-9 -3,0 -5,1 -7,3 -3,3 -4,8 2,16 3,4 6,6 6,6 l 83,93 c 1,1 17,20 2,40 l -3,4 c -3,3 -5,5 -8,7 -14,12 -33,13 -41,13 -4,0 -8,0 -11,-1 -8,-1 -14,-4 -16,-7 l -1,-1 c -5,-5 -46,-47 -81,-76 -5,-4 -10,-9 -16,-9 -3,0 -5,1 -7,3 -7,7 3,19 8,23 l 71,78 c 0,1 -1,2 -3,5 -3,3 -11,12 -37,15 -3,0 -6,1 -9,1 -26,0 -55,-13 -69,-21 7,-14 10,-29 10,-45 0,-58 -47,-106 -105,-106 -1,0 -3,0 -4,0 2,-27 -2,-77 -53,-99 -15,-6 -30,-10.00002 -44,-10.00002 -11,0 -22,2.00002 -32,6.00002 -11,-21.00002 -28,-36.00002 -52,-44.00002 -13,-4 -26,-7 -38,-7 -21,0 -41,6 -59,19 -17,-21 -42,-33 -69,-33 -24,0 -46,9 -63,26 -22,-17 -109,-72 -343,-125 -11,-3 -37,-10 -53,-15 -3,13 -5,25 -6,38 0,0 43,10 52,12 239,53 318,108 331,119 -5,11.00002 -7,23.00002 -7,34.00002 0,49 40,89 89,90 6,0 11,0 16,-1 7,36 31,64 67,78 11,4 21,6 32,6 7,0 14,-1 20,-3 7,17 22,38 55,52 12,5 24,7 35,7 9,0 19,-2 27,-5 16,39 55,65 97,65 28,0 56,-12 76,-32 17,9 53,27 89,27 5,0 9,0 14,-1 36,-5 53,-19 61,-30 1,-2 3,-4 4,-6 9,2 18,4 29,4 20,0 39,-7 58,-21 19,-14 32,-33 34,-49 0,0 0,0 0,-1 6,1 13,2 19,2 20,0 40,-6 59,-19 37,-24 43,-56 43,-76 6,1 13,2 20,2 19,0 38,-6 56,-17 23,-15 37,-37 39,-63 1,-18 -3,-35 -12,-51.00002 62,-27 202,-78 368,-115 -1,-13 -3,-26 -5,-38 -201,45 -350,109 -388,126 z"
   id="path5232"
   inkscape:connector-curvature="0"
   style="fill:#2105a3;fill-rule:nonzero" />
  <path
   class="fil1"
   d="m 3369.3127,2179.9404 c -16,21 -39,32 -69,32 -30,0 -53,-11 -70,-32 -16,-21 -24,-52 -24,-91 0,-39 8,-70 24,-91 16,-21 39,-32 70,-32 30,0 53,11 69,32 16,21 24,52 24,91 0,39 -8,70 -24,91 z m 82,-239 c -33,-42 -84,-63 -152,-63 -68,0 -118,21 -151,63 -33,42 -50,91 -50,148 0,58 17,107 50,148 33,41 84,62 151,62 68,0 118,-21 152,-62 33,-41 50,-91 50,-148 0,-57 -17,-106 -50,-148 z"
   id="path5234"
   inkscape:connector-curvature="0"
   style="fill:#2105a3;fill-rule:nonzero" />
  <path
   class="fil1"
   d="m 2549.3127,2130.9404 c -1,35 -11,58 -30,71 -19,13 -40,20 -62,20 -14,0 -26,-4 -36,-12 -10,-8 -15,-21 -15,-38 0,-20 8,-34 24,-44 10,-6 25,-10 48,-14 l 24,-4 c 12,-2 21,-5 28,-7 7,-3 13,-6 20,-10 v 38 z m 52,-225 c -34,-17 -72,-26 -116,-26 -67,0 -114,17 -141,52 -17,22 -27,51 -29,85 h 100 c 2,-15 7,-27 15,-36 10,-12 28,-18 53,-18 22,0 39,3 50,9 11,6 17,17 17,34 0,13 -7,23 -22,29 -8,4 -22,7 -41,9 l -35,4 c -40,5 -71,14 -91,25 -38,22 -57,57 -57,106 0,37 12,66 35,87 23,20 53,29 89,31 226,10 223,-119 225,-146 v -148 c 0,-48 -17,-80 -51,-97 z"
   id="path5236"
   inkscape:connector-curvature="0"
   style="fill:#2105a3;fill-rule:nonzero" />
  <path
   class="fil1"
   d="m 2087.3127,1968.9404 c 26,0 45,8 57,24 8,12 14,25 16,40 h 111 c -6,-56 -26,-95 -59,-118 -33,-22 -76,-33 -128,-33 -61,0 -109,19 -144,56 -35,38 -52,90 -52,158 0,60 16,109 47,146 32,38 81,56 148,56 67,0 117,-23 151,-68 21,-28 33,-58 36,-89 h -111 c -2,21 -9,38 -19,51 -11,13 -29,20 -54,20 -36,0 -60,-16 -73,-49 -7,-18 -11,-41 -11,-70 0,-30 4,-55 11,-73 13,-34 39,-52 75,-52 z"
   id="path5238"
   inkscape:connector-curvature="0"
   style="fill:#2105a3;fill-rule:nonzero" />
  <path
   class="fil1"
   d="m 1857.3127,1881.9404 c -229,0 -215,202 -215,202 v 206 h 104 v -193 c 0,-32 4,-55 12,-70 14,-27 42,-40 84,-40 3,0 7,0 12,0 5,0 11,1 17,1 v -106 c -5,0 -8,0 -9,-1 -1,0 -3,0 -5,0 z"
   id="path5240"
   inkscape:connector-curvature="0"
   style="fill:#2105a3;fill-rule:nonzero" />
  <path
   class="fil1"
   d="m 1337.3127,1988.9404 c 15,-15 35,-23 62,-23 24,0 45,7 61,21 16,14 26,35 27,62 h -178 c 4,-26 13,-46 27,-61 z m 139,193 c -4,6 -9,12 -14,16 -15,12 -35,16 -58,16 -22,0 -40,-3 -55,-13 -26,-16 -40,-43 -42,-82 h 287 c 0,-34 -1,-60 -3,-78 -5,-31 -15,-58 -31,-81 -18,-27 -41,-46 -68,-58 -28,-12 -58,-18 -93,-18 -58,0 -105,18 -141,55 -36,36 -54,89 -54,157 0,73 20,125 60,158 40,32 86,49 139,49 64,0 113,-19 148,-58 19,-20 31,-40 36,-60 h -110 z"
   id="path5242"
   inkscape:connector-curvature="0"
   style="fill:#2105a3;fill-rule:nonzero" />
  <path
   class="fil1"
   d="m 1162.3127,2288.9404 h -95 v -239 c 0,-22 -7,-74 -69.99999,-74 -42,0 -72,30 -72,74 v 239 h -95 v -239 c 0,-22 -6,-74 -69,-74 -42,0 -72,30 -72,74 v 239 h -95 v -236 c 0,-98 65,-173 167,-173 50,0 91,21 118,55 28,-34 70,-55 118,-55 102.99999,0 163.99999,71 163.99999,173 v 236 z"
   id="path5244"
   inkscape:connector-curvature="0"
   style="fill:#2105a3;fill-rule:nonzero" />
  <path
   class="fil1"
   d="m 2943.3127,2180.9404 c -15,22 -37,33 -66,33 -29,0 -51,-11 -65,-33 -14,-22 -21,-54 -21,-90 0,-34 7,-62 21,-85 14,-23 36,-34 66,-34 20,0 37,6 52,19 24,21 37,58 37,106 0,34 -8,63 -23,84 z m 124,-424 c 0,0 -105,-11 -105,73 v 111 c -12,-19 -27,-33 -45,-44 -19,-10 -40,-16 -64,-16 -52,0 -93,19 -124,58 -31,39 -46,94 -46,161 0,58 16,106 47,143 31,37 93,54 148,54 191,0 189,-164 189,-164 v -377 z"
   id="path5246"
   inkscape:connector-curvature="0"
   style="fill:#2105a3;fill-rule:nonzero" />
  <path
   class="fil1"
   d="m 2493.3127,2593.9404 c 14,-15 35,-22 61,-22 24,0 44,7 61,21 16,14 25,35 27,62 h -176 c 4,-25 13,-46 27,-60 z m 138,191 c -4,6 -9,11 -14,16 -15,12 -35,16 -58,16 -22,0 -39,-3 -55,-13 -26,-16 -39,-43 -41,-82 h 285 c 0,-34 -1,-60 -3,-78 -5,-31 -15,-58 -31,-81 -18,-26 -40,-46 -68,-58 -27,-12 -58,-18 -92,-18 -57,0 -104,18 -140,54 -36,36 -54,88 -54,156 0,72 20,124 60,156 40,32 86,48 138,48 63,0 112,-19 147,-57 19,-20 31,-40 36,-59 h -109 z"
   id="path5248"
   inkscape:connector-curvature="0"
   style="fill:#2105a3;fill-rule:nonzero" />
  <path
   class="fil1"
   d="m 1962.3127,2783.9404 c -14,22 -36,33 -65,33 -29,0 -51,-11 -67,-33 -15,-22 -23,-50 -23,-84 0,-48 12,-83 37,-103 15,-13 32,-19 52,-19 30,0 52,11 66,34 14,23 21,51 21,85 0,36 -7,66 -22,87 z m -43,-296 c -24,0 -45,5 -64,16 -19,10 -34,25 -45,44 v -187 c 0,0 -104,-10 -104,75 0,71 0,302 0,302 0,0 -2,164 189,164 55,0 116,-16 148,-54 31,-37 47,-85 47,-143 0,-67 -15,-120 -46,-159 -31,-39 -72,-58 -124,-58 z"
   id="path5250"
   inkscape:connector-curvature="0"
   style="fill:#2105a3;fill-rule:nonzero" />
  <path
   class="fil1"
   d="m 2341.3127,2487.9404 c -1,0 -3,0 -5,0 -229,0 -215,202 -215,202 v 202 h 104 v -190 c 0,-32 4,-55 12,-70 14,-27 42,-41 83,-41 3,0 7,0 12,0 5,0 11,1 17,1 v -106 c -5,0 -8,0 -9,-1 z"
   id="path5252"
   inkscape:connector-curvature="0"
   style="fill:#2105a3;fill-rule:nonzero" />
  <path
   class="fil1"
   d="m 1348.3127,2434.9404 c 0,78 0,456 0,456 h 97 v -531 c 0,0 -97,-4 -97,74 z"
   id="path5254"
   inkscape:connector-curvature="0"
   style="fill:#2105a3;fill-rule:nonzero" />
  <polygon
   class="fil1"
   points="8217,3678 8217,3781 8321,3781 8321,3678 "
   id="polygon5256"
   transform="translate(-6691.6873,-1318.0596)"
   style="fill:#2105a3;fill-rule:nonzero" />
  <polygon
   class="fil1"
   points="8217,3816 8217,4210 8321,4210 8321,3816 "
   id="polygon5258"
   transform="translate(-6691.6873,-1318.0596)"
   style="fill:#2105a3;fill-rule:nonzero" />
 </g>
</svg>